<mxfile host="app.diagrams.net" modified="2022-06-06T09:07:54.633Z" agent="5.0 (Windows NT 6.1; Win64; x64) AppleWebKit/537.36 (KHTML, like Gecko) Chrome/102.0.5005.63 Safari/537.36" etag="2Dw5Ah0VYc1uKctcyExP" version="19.0.0" type="github" pages="2">
  <diagram id="8Mcmq0ioaoLnQd22ZTMx" name="第 1 页">
    <mxGraphModel dx="723" dy="438" grid="1" gridSize="10" guides="1" tooltips="1" connect="1" arrows="1" fold="1" page="1" pageScale="1" pageWidth="300" pageHeight="900" math="0" shadow="0">
      <root>
        <mxCell id="0" />
        <mxCell id="1" parent="0" />
        <mxCell id="xZrQEDNqEejDbcOTDLVU-12" value="" style="text;html=1;fillColor=none;align=center;verticalAlign=middle;whiteSpace=wrap;fontSize=54;fontStyle=1;shadow=1;rounded=1;glass=0;sketch=0;arcSize=1;dashed=1;strokeWidth=1;container=0;strokeColor=default;" parent="1" vertex="1">
          <mxGeometry x="10" y="380" width="570" height="250" as="geometry" />
        </mxCell>
        <mxCell id="Qy1Y6E39n3u61H79zV9y-29" value="&lt;b style=&quot;color: rgb(51, 51, 51); font-size: 14px;&quot;&gt;工程数据中心&lt;/b&gt;" style="rounded=0;whiteSpace=wrap;html=1;shadow=1;fontSize=11;strokeColor=#23445d;strokeWidth=1;fillColor=#bac8d3;" parent="1" vertex="1">
          <mxGeometry x="36.67" y="90" width="100" height="45" as="geometry" />
        </mxCell>
        <mxCell id="Qy1Y6E39n3u61H79zV9y-30" value="&lt;b style=&quot;color: rgb(51, 51, 51); font-size: 14px;&quot;&gt;业务平台&lt;/b&gt;" style="rounded=0;whiteSpace=wrap;html=1;shadow=1;fontSize=11;strokeColor=#23445d;strokeWidth=1;fillColor=#bac8d3;" parent="1" vertex="1">
          <mxGeometry x="160" y="90" width="100" height="45" as="geometry" />
        </mxCell>
        <mxCell id="Qy1Y6E39n3u61H79zV9y-31" value="&lt;b style=&quot;color: rgb(51, 51, 51); font-size: 14px;&quot;&gt;区块链&lt;/b&gt;" style="rounded=0;whiteSpace=wrap;html=1;shadow=1;fontSize=11;strokeColor=#23445d;strokeWidth=1;fillColor=#bac8d3;" parent="1" vertex="1">
          <mxGeometry x="286.33000000000004" y="90" width="100" height="45" as="geometry" />
        </mxCell>
        <mxCell id="Qy1Y6E39n3u61H79zV9y-32" value="&lt;b style=&quot;color: rgb(51, 51, 51); font-size: 14px;&quot;&gt;业务应用&lt;/b&gt;" style="rounded=0;whiteSpace=wrap;html=1;shadow=1;fontSize=11;strokeColor=#23445d;strokeWidth=1;fillColor=#bac8d3;" parent="1" vertex="1">
          <mxGeometry x="410" y="90" width="100" height="45" as="geometry" />
        </mxCell>
        <mxCell id="Qy1Y6E39n3u61H79zV9y-37" value="" style="edgeStyle=orthogonalEdgeStyle;elbow=horizontal;endArrow=classic;html=1;rounded=0;jumpStyle=none;exitX=0.5;exitY=1;exitDx=0;exitDy=0;" parent="1" source="Qy1Y6E39n3u61H79zV9y-30" edge="1">
          <mxGeometry width="50" height="50" relative="1" as="geometry">
            <mxPoint x="319" y="320" as="sourcePoint" />
            <mxPoint x="210" y="380" as="targetPoint" />
          </mxGeometry>
        </mxCell>
        <mxCell id="1UlP2ltITPpf5oRuqJOh-21" value="鉴权" style="edgeLabel;html=1;align=center;verticalAlign=middle;resizable=0;points=[];" vertex="1" connectable="0" parent="Qy1Y6E39n3u61H79zV9y-37">
          <mxGeometry x="-0.5812" relative="1" as="geometry">
            <mxPoint y="-7" as="offset" />
          </mxGeometry>
        </mxCell>
        <mxCell id="Qy1Y6E39n3u61H79zV9y-50" value="&lt;b&gt;&lt;font color=&quot;#ea6b66&quot;&gt;统一认证中心&lt;/font&gt;&lt;/b&gt;" style="text;html=1;strokeColor=none;fillColor=none;align=center;verticalAlign=middle;whiteSpace=wrap;rounded=0;shadow=1;fontSize=11;" parent="1" vertex="1">
          <mxGeometry x="224.99999999999997" y="380.76" width="140" height="30" as="geometry" />
        </mxCell>
        <mxCell id="xZrQEDNqEejDbcOTDLVU-18" value="&lt;b&gt;统一认证&lt;/b&gt;" style="rounded=0;whiteSpace=wrap;html=1;shadow=0;fontSize=12;fillColor=#f9f7ed;strokeColor=#36393d;" parent="1" vertex="1">
          <mxGeometry x="130" y="410.76" width="110" height="69.24" as="geometry" />
        </mxCell>
        <mxCell id="1UlP2ltITPpf5oRuqJOh-1" value="&lt;b&gt;统一鉴权&lt;/b&gt;" style="rounded=0;whiteSpace=wrap;html=1;shadow=0;fontSize=12;fillColor=#f9f7ed;strokeColor=#36393d;" vertex="1" parent="1">
          <mxGeometry x="336" y="410.76" width="114" height="69.24" as="geometry" />
        </mxCell>
        <mxCell id="1UlP2ltITPpf5oRuqJOh-5" value="" style="edgeStyle=orthogonalEdgeStyle;elbow=horizontal;endArrow=classic;html=1;rounded=0;jumpStyle=none;exitX=0.5;exitY=1;exitDx=0;exitDy=0;" edge="1" parent="1" source="Qy1Y6E39n3u61H79zV9y-31">
          <mxGeometry width="50" height="50" relative="1" as="geometry">
            <mxPoint x="216.67000000000007" y="145" as="sourcePoint" />
            <mxPoint x="336" y="380" as="targetPoint" />
          </mxGeometry>
        </mxCell>
        <mxCell id="1UlP2ltITPpf5oRuqJOh-20" value="鉴权" style="edgeLabel;html=1;align=center;verticalAlign=middle;resizable=0;points=[];" vertex="1" connectable="0" parent="1UlP2ltITPpf5oRuqJOh-5">
          <mxGeometry x="-0.4287" y="-1" relative="1" as="geometry">
            <mxPoint x="1" y="-25" as="offset" />
          </mxGeometry>
        </mxCell>
        <mxCell id="1UlP2ltITPpf5oRuqJOh-6" value="" style="edgeStyle=orthogonalEdgeStyle;elbow=horizontal;endArrow=classic;html=1;rounded=0;jumpStyle=none;exitX=0.25;exitY=1;exitDx=0;exitDy=0;" edge="1" parent="1" source="Qy1Y6E39n3u61H79zV9y-32">
          <mxGeometry width="50" height="50" relative="1" as="geometry">
            <mxPoint x="336.6700000000001" y="145" as="sourcePoint" />
            <mxPoint x="435" y="380" as="targetPoint" />
          </mxGeometry>
        </mxCell>
        <mxCell id="1UlP2ltITPpf5oRuqJOh-19" value="鉴权" style="edgeLabel;html=1;align=center;verticalAlign=middle;resizable=0;points=[];" vertex="1" connectable="0" parent="1UlP2ltITPpf5oRuqJOh-6">
          <mxGeometry x="-0.3746" y="2" relative="1" as="geometry">
            <mxPoint x="-2" y="-32" as="offset" />
          </mxGeometry>
        </mxCell>
        <mxCell id="1UlP2ltITPpf5oRuqJOh-7" value="" style="endArrow=classic;startArrow=classic;html=1;rounded=0;entryX=0.75;entryY=1;entryDx=0;entryDy=0;exitX=0.178;exitY=0;exitDx=0;exitDy=0;exitPerimeter=0;dashed=1;" edge="1" parent="1" source="xZrQEDNqEejDbcOTDLVU-12" target="Qy1Y6E39n3u61H79zV9y-29">
          <mxGeometry width="50" height="50" relative="1" as="geometry">
            <mxPoint x="110" y="200" as="sourcePoint" />
            <mxPoint x="160" y="150" as="targetPoint" />
          </mxGeometry>
        </mxCell>
        <mxCell id="1UlP2ltITPpf5oRuqJOh-23" value="数据同步" style="edgeLabel;html=1;align=center;verticalAlign=middle;resizable=0;points=[];" vertex="1" connectable="0" parent="1UlP2ltITPpf5oRuqJOh-7">
          <mxGeometry x="0.4871" relative="1" as="geometry">
            <mxPoint y="13" as="offset" />
          </mxGeometry>
        </mxCell>
        <mxCell id="1UlP2ltITPpf5oRuqJOh-11" value="审计" style="html=1;shadow=0;dashed=0;align=center;verticalAlign=middle;shape=mxgraph.arrows2.jumpInArrow;dy=6.92;dx=23.83;arrowHead=44.5;opacity=80;direction=west;rotation=45;" vertex="1" parent="1">
          <mxGeometry x="236" y="538" width="70" height="80" as="geometry" />
        </mxCell>
        <mxCell id="1UlP2ltITPpf5oRuqJOh-15" value="监控" style="html=1;shadow=0;dashed=0;align=center;verticalAlign=middle;shape=mxgraph.arrows2.jumpInArrow;dy=6.92;dx=23.83;arrowHead=44.5;opacity=80;direction=west;rotation=-135;" vertex="1" parent="1">
          <mxGeometry x="255" y="475" width="70" height="80" as="geometry" />
        </mxCell>
        <mxCell id="1UlP2ltITPpf5oRuqJOh-16" value="&lt;span style=&quot;font-size: 11px;&quot;&gt;实时审计&lt;/span&gt;" style="rounded=0;whiteSpace=wrap;html=1;shadow=0;fontSize=12;fillColor=#ffcc99;strokeColor=#36393d;" vertex="1" parent="1">
          <mxGeometry x="250" y="531" width="64" height="30" as="geometry" />
        </mxCell>
        <mxCell id="1UlP2ltITPpf5oRuqJOh-17" value="" style="endArrow=classic;startArrow=classic;html=1;rounded=0;entryX=0.75;entryY=1;entryDx=0;entryDy=0;exitX=0.178;exitY=0;exitDx=0;exitDy=0;exitPerimeter=0;dashed=1;" edge="1" parent="1">
          <mxGeometry width="50" height="50" relative="1" as="geometry">
            <mxPoint x="490.00000000000006" y="380" as="sourcePoint" />
            <mxPoint x="490.2100000000001" y="135" as="targetPoint" />
          </mxGeometry>
        </mxCell>
        <mxCell id="1UlP2ltITPpf5oRuqJOh-18" value="数据同步" style="edgeLabel;html=1;align=center;verticalAlign=middle;resizable=0;points=[];" vertex="1" connectable="0" parent="1UlP2ltITPpf5oRuqJOh-17">
          <mxGeometry x="0.3442" y="-2" relative="1" as="geometry">
            <mxPoint y="-5" as="offset" />
          </mxGeometry>
        </mxCell>
        <mxCell id="1UlP2ltITPpf5oRuqJOh-24" value="" style="endArrow=classic;html=1;rounded=0;exitX=0.25;exitY=1;exitDx=0;exitDy=0;" edge="1" parent="1" source="Qy1Y6E39n3u61H79zV9y-29">
          <mxGeometry width="50" height="50" relative="1" as="geometry">
            <mxPoint x="20" y="240" as="sourcePoint" />
            <mxPoint x="62" y="380" as="targetPoint" />
          </mxGeometry>
        </mxCell>
        <mxCell id="1UlP2ltITPpf5oRuqJOh-25" value="鉴权" style="edgeLabel;html=1;align=center;verticalAlign=middle;resizable=0;points=[];" vertex="1" connectable="0" parent="1UlP2ltITPpf5oRuqJOh-24">
          <mxGeometry x="-0.6435" relative="1" as="geometry">
            <mxPoint as="offset" />
          </mxGeometry>
        </mxCell>
        <mxCell id="Qy1Y6E39n3u61H79zV9y-25" value="" style="rounded=1;whiteSpace=wrap;html=1;shadow=0;fontSize=11;strokeWidth=1;fillColor=#ffcd28;dashed=1;arcSize=5;strokeColor=#d79b00;opacity=80;gradientColor=#ffa500;" parent="1" vertex="1">
          <mxGeometry x="10" y="240" width="570" height="50" as="geometry" />
        </mxCell>
        <mxCell id="1UlP2ltITPpf5oRuqJOh-14" value="&lt;b&gt;&lt;font color=&quot;#ea6b66&quot;&gt;安全管控&lt;/font&gt;&lt;/b&gt;" style="text;html=1;strokeColor=none;fillColor=none;align=center;verticalAlign=middle;whiteSpace=wrap;rounded=0;shadow=1;fontSize=11;" vertex="1" parent="1">
          <mxGeometry x="224.99999999999997" y="240" width="140" height="30" as="geometry" />
        </mxCell>
      </root>
    </mxGraphModel>
  </diagram>
  <diagram id="HrFjFPu9NfcljseWr6zG" name="第 2 页">
    <mxGraphModel dx="868" dy="525" grid="1" gridSize="10" guides="1" tooltips="1" connect="1" arrows="1" fold="1" page="1" pageScale="1" pageWidth="300" pageHeight="900" math="0" shadow="0">
      <root>
        <mxCell id="0" />
        <mxCell id="1" parent="0" />
      </root>
    </mxGraphModel>
  </diagram>
</mxfile>
